<svg xmlns="http://www.w3.org/2000/svg" xmlns:xlink="http://www.w3.org/1999/xlink" width="794" zoomAndPan="magnify" viewBox="0 0 595.5 599.999999" height="800" preserveAspectRatio="xMidYMid meet" version="1.0"><defs><clipPath id="90a7b8ac7b"><path d="M 0 0.25 L 595 0.25 L 595 599.746094 L 0 599.746094 Z M 0 0.25 " clip-rule="nonzero"/></clipPath><clipPath id="e6ceb272b3"><path d="M 0 0.25 L 594.699219 0.25 L 594.699219 599.746094 L 0 599.746094 Z M 0 0.25 " clip-rule="nonzero"/></clipPath><clipPath id="4d6c50869a"><path d="M 22.480469 0.25 L 572.21875 0.25 C 584.636719 0.25 594.699219 10.316406 594.699219 22.734375 L 594.699219 577.265625 C 594.699219 589.683594 584.636719 599.75 572.21875 599.75 L 22.480469 599.75 C 10.066406 599.75 0 589.683594 0 577.265625 L 0 22.734375 C 0 10.316406 10.066406 0.25 22.480469 0.25 Z M 22.480469 0.25 " clip-rule="nonzero"/></clipPath><clipPath id="1aeece396c"><path d="M 64.425781 61.136719 L 558.261719 61.136719 L 558.261719 554.972656 L 64.425781 554.972656 Z M 64.425781 61.136719 " clip-rule="nonzero"/></clipPath><clipPath id="786b830aa7"><path d="M 4.476562 7.125 L 590.484375 7.125 L 590.484375 593 L 4.476562 593 Z M 4.476562 7.125 " clip-rule="nonzero"/></clipPath></defs><g clip-path="url(#90a7b8ac7b)"><path fill="#ffffff" d="M 0 0.25 L 595 0.25 L 595 599.75 L 0 599.75 Z M 0 0.25 " fill-opacity="1" fill-rule="nonzero"/></g><g clip-path="url(#e6ceb272b3)"><g clip-path="url(#4d6c50869a)"><path fill="#ffffff" d="M 0 0.25 L 594.699219 0.25 L 594.699219 599.441406 L 0 599.441406 Z M 0 0.25 " fill-opacity="1" fill-rule="nonzero"/></g></g><g clip-path="url(#1aeece396c)"><path fill="#000000" d="M 558.390625 308.117188 C 558.390625 312.160156 558.289062 316.199219 558.089844 320.238281 C 557.894531 324.273438 557.597656 328.304688 557.199219 332.328125 C 556.804688 336.347656 556.308594 340.359375 555.714844 344.359375 C 555.121094 348.355469 554.433594 352.335938 553.644531 356.300781 C 552.855469 360.265625 551.96875 364.207031 550.988281 368.128906 C 550.003906 372.050781 548.925781 375.945312 547.753906 379.8125 C 546.582031 383.679688 545.3125 387.519531 543.953125 391.324219 C 542.589844 395.128906 541.136719 398.898438 539.589844 402.632812 C 538.042969 406.367188 536.402344 410.0625 534.675781 413.714844 C 532.949219 417.371094 531.132812 420.980469 529.226562 424.542969 C 527.320312 428.109375 525.328125 431.625 523.25 435.09375 C 521.171875 438.558594 519.011719 441.972656 516.765625 445.332031 C 514.519531 448.695312 512.191406 452 509.785156 455.246094 C 507.375 458.492188 504.890625 461.675781 502.328125 464.800781 C 499.761719 467.925781 497.121094 470.984375 494.410156 473.980469 C 491.695312 476.976562 488.90625 479.902344 486.050781 482.761719 C 483.191406 485.617188 480.265625 488.40625 477.269531 491.121094 C 474.273438 493.832031 471.214844 496.472656 468.089844 499.039062 C 464.964844 501.601562 461.78125 504.085938 458.535156 506.496094 C 455.289062 508.902344 451.984375 511.230469 448.621094 513.476562 C 445.261719 515.722656 441.847656 517.882812 438.382812 519.960938 C 434.914062 522.039062 431.398438 524.03125 427.832031 525.9375 C 424.269531 527.84375 420.660156 529.660156 417.003906 531.386719 C 413.351562 533.113281 409.65625 534.753906 405.921875 536.300781 C 402.1875 537.847656 398.417969 539.300781 394.613281 540.664062 C 390.808594 542.023438 386.96875 543.292969 383.101562 544.464844 C 379.234375 545.636719 375.339844 546.714844 371.417969 547.699219 C 367.496094 548.679688 363.554688 549.566406 359.589844 550.355469 C 355.625 551.144531 351.644531 551.832031 347.648438 552.425781 C 343.648438 553.019531 339.636719 553.515625 335.617188 553.910156 C 331.59375 554.308594 327.5625 554.605469 323.527344 554.800781 C 319.488281 555 315.449219 555.101562 311.40625 555.101562 C 307.363281 555.101562 303.324219 555 299.289062 554.800781 C 295.25 554.605469 291.222656 554.308594 287.199219 553.910156 C 283.175781 553.515625 279.164062 553.019531 275.167969 552.425781 C 271.167969 551.832031 267.1875 551.144531 263.222656 550.355469 C 259.257812 549.566406 255.316406 548.679688 251.394531 547.699219 C 247.472656 546.714844 243.578125 545.636719 239.710938 544.464844 C 235.84375 543.292969 232.007812 542.023438 228.199219 540.664062 C 224.394531 539.300781 220.625 537.847656 216.890625 536.300781 C 213.15625 534.753906 209.460938 533.113281 205.808594 531.386719 C 202.15625 529.660156 198.546875 527.84375 194.980469 525.9375 C 191.414062 524.03125 187.898438 522.039062 184.433594 519.960938 C 180.964844 517.882812 177.550781 515.722656 174.191406 513.476562 C 170.832031 511.230469 167.527344 508.902344 164.28125 506.496094 C 161.03125 504.085938 157.847656 501.601562 154.722656 499.039062 C 151.597656 496.472656 148.539062 493.832031 145.542969 491.121094 C 142.550781 488.40625 139.621094 485.617188 136.765625 482.761719 C 133.90625 479.902344 131.121094 476.976562 128.40625 473.980469 C 125.691406 470.984375 123.050781 467.925781 120.488281 464.800781 C 117.921875 461.675781 115.4375 458.492188 113.027344 455.246094 C 110.621094 452 108.292969 448.695312 106.046875 445.332031 C 103.804688 441.972656 101.640625 438.558594 99.5625 435.09375 C 97.484375 431.625 95.492188 428.109375 93.589844 424.542969 C 91.683594 420.980469 89.867188 417.371094 88.136719 413.714844 C 86.410156 410.0625 84.773438 406.367188 83.226562 402.632812 C 81.679688 398.898438 80.222656 395.128906 78.863281 391.324219 C 77.5 387.519531 76.234375 383.679688 75.058594 379.8125 C 73.886719 375.945312 72.808594 372.050781 71.828125 368.128906 C 70.84375 364.207031 69.960938 360.265625 69.171875 356.300781 C 68.382812 352.335938 67.691406 348.355469 67.097656 344.359375 C 66.503906 340.359375 66.011719 336.347656 65.613281 332.328125 C 65.21875 328.304688 64.921875 324.273438 64.722656 320.238281 C 64.523438 316.199219 64.425781 312.160156 64.425781 308.117188 C 64.425781 304.074219 64.523438 300.035156 64.722656 296 C 64.921875 291.960938 65.21875 287.933594 65.613281 283.910156 C 66.011719 279.886719 66.503906 275.875 67.097656 271.878906 C 67.691406 267.878906 68.382812 263.898438 69.171875 259.933594 C 69.960938 255.96875 70.84375 252.027344 71.828125 248.105469 C 72.808594 244.183594 73.886719 240.289062 75.058594 236.421875 C 76.234375 232.554688 77.5 228.71875 78.863281 224.910156 C 80.222656 221.105469 81.679688 217.335938 83.226562 213.601562 C 84.773438 209.867188 86.410156 206.171875 88.136719 202.519531 C 89.867188 198.867188 91.683594 195.257812 93.589844 191.691406 C 95.492188 188.125 97.484375 184.609375 99.5625 181.144531 C 101.640625 177.675781 103.804688 174.261719 106.046875 170.902344 C 108.292969 167.542969 110.621094 164.238281 113.027344 160.992188 C 115.4375 157.746094 117.921875 154.558594 120.488281 151.433594 C 123.050781 148.308594 125.691406 145.25 128.40625 142.253906 C 131.121094 139.261719 133.90625 136.332031 136.765625 133.476562 C 139.621094 130.617188 142.550781 127.832031 145.542969 125.117188 C 148.539062 122.402344 151.597656 119.761719 154.722656 117.199219 C 157.847656 114.632812 161.03125 112.148438 164.28125 109.738281 C 167.527344 107.332031 170.832031 105.003906 174.191406 102.757812 C 177.550781 100.515625 180.964844 98.351562 184.433594 96.273438 C 187.898438 94.195312 191.414062 92.203125 194.980469 90.300781 C 198.546875 88.394531 202.15625 86.578125 205.808594 84.847656 C 209.460938 83.121094 213.15625 81.484375 216.890625 79.9375 C 220.625 78.390625 224.394531 76.933594 228.199219 75.574219 C 232.007812 74.210938 235.84375 72.945312 239.710938 71.769531 C 243.578125 70.597656 247.472656 69.519531 251.394531 68.539062 C 255.316406 67.554688 259.257812 66.671875 263.222656 65.882812 C 267.1875 65.09375 271.167969 64.402344 275.167969 63.808594 C 279.164062 63.214844 283.175781 62.722656 287.199219 62.324219 C 291.222656 61.929688 295.25 61.632812 299.289062 61.433594 C 303.324219 61.234375 307.363281 61.136719 311.40625 61.136719 C 315.449219 61.136719 319.488281 61.234375 323.527344 61.433594 C 327.5625 61.632812 331.59375 61.929688 335.617188 62.324219 C 339.636719 62.722656 343.648438 63.214844 347.648438 63.808594 C 351.644531 64.402344 355.625 65.09375 359.589844 65.882812 C 363.554688 66.671875 367.496094 67.554688 371.417969 68.539062 C 375.339844 69.519531 379.234375 70.597656 383.101562 71.769531 C 386.96875 72.945312 390.808594 74.210938 394.613281 75.574219 C 398.417969 76.933594 402.1875 78.390625 405.921875 79.9375 C 409.65625 81.484375 413.351562 83.121094 417.003906 84.847656 C 420.660156 86.578125 424.269531 88.394531 427.832031 90.300781 C 431.398438 92.203125 434.914062 94.195312 438.382812 96.273438 C 441.847656 98.351562 445.261719 100.515625 448.621094 102.757812 C 451.984375 105.003906 455.289062 107.332031 458.535156 109.738281 C 461.78125 112.148438 464.964844 114.632812 468.089844 117.199219 C 471.214844 119.761719 474.273438 122.402344 477.269531 125.117188 C 480.265625 127.832031 483.191406 130.617188 486.050781 133.476562 C 488.90625 136.332031 491.695312 139.261719 494.410156 142.253906 C 497.121094 145.25 499.761719 148.308594 502.328125 151.433594 C 504.890625 154.558594 507.375 157.742188 509.785156 160.992188 C 512.191406 164.238281 514.519531 167.542969 516.765625 170.902344 C 519.011719 174.261719 521.171875 177.675781 523.25 181.144531 C 525.328125 184.609375 527.320312 188.125 529.226562 191.691406 C 531.132812 195.257812 532.949219 198.867188 534.675781 202.519531 C 536.402344 206.171875 538.042969 209.867188 539.589844 213.601562 C 541.136719 217.335938 542.589844 221.105469 543.953125 224.910156 C 545.3125 228.71875 546.582031 232.554688 547.753906 236.421875 C 548.925781 240.289062 550.003906 244.183594 550.988281 248.105469 C 551.96875 252.027344 552.855469 255.96875 553.644531 259.933594 C 554.433594 263.898438 555.121094 267.878906 555.714844 271.878906 C 556.308594 275.875 556.804688 279.886719 557.199219 283.910156 C 557.597656 287.933594 557.894531 291.960938 558.089844 296 C 558.289062 300.035156 558.390625 304.074219 558.390625 308.117188 Z M 558.390625 308.117188 " fill-opacity="1" fill-rule="nonzero"/></g><path fill="#ffffff" d="M 286.808594 284.183594 C 287.550781 284.773438 288.339844 285.296875 289.175781 285.753906 C 290.007812 286.210938 290.871094 286.59375 291.769531 286.90625 C 292.667969 287.214844 293.582031 287.449219 294.519531 287.609375 C 295.457031 287.765625 296.402344 287.847656 297.351562 287.847656 C 298.300781 287.847656 299.242188 287.765625 300.179688 287.609375 C 301.117188 287.449219 302.035156 287.214844 302.929688 286.90625 C 303.828125 286.59375 304.691406 286.210938 305.527344 285.753906 C 306.359375 285.296875 307.148438 284.773438 307.894531 284.183594 L 391.265625 218.386719 L 407.082031 206.085938 L 187.816406 206.085938 L 206.363281 220.726562 Z M 286.808594 284.183594 " fill-opacity="1" fill-rule="nonzero"/><path fill="#ffffff" d="M 297.351562 322.0625 C 294.496094 322.058594 291.664062 321.8125 288.847656 321.328125 C 286.035156 320.84375 283.285156 320.128906 280.589844 319.179688 C 277.898438 318.234375 275.304688 317.070312 272.808594 315.683594 C 270.3125 314.300781 267.949219 312.714844 265.71875 310.933594 L 155.597656 224.046875 L 155.597656 376.929688 C 155.597656 377.484375 155.625 378.039062 155.683594 378.59375 C 155.738281 379.148438 155.816406 379.695312 155.925781 380.242188 C 156.035156 380.785156 156.171875 381.324219 156.332031 381.859375 C 156.496094 382.390625 156.683594 382.914062 156.894531 383.425781 C 157.109375 383.941406 157.347656 384.441406 157.609375 384.933594 C 157.871094 385.425781 158.15625 385.902344 158.464844 386.363281 C 158.773438 386.824219 159.105469 387.269531 159.457031 387.703125 C 159.8125 388.132812 160.183594 388.542969 160.578125 388.9375 C 160.972656 389.328125 161.382812 389.703125 161.8125 390.054688 C 162.242188 390.410156 162.6875 390.738281 163.152344 391.046875 C 163.613281 391.359375 164.089844 391.644531 164.582031 391.90625 C 165.070312 392.167969 165.574219 392.40625 166.085938 392.617188 C 166.601562 392.832031 167.125 393.019531 167.65625 393.179688 C 168.1875 393.34375 168.726562 393.476562 169.273438 393.585938 C 169.816406 393.695312 170.367188 393.777344 170.921875 393.832031 C 171.472656 393.886719 172.027344 393.914062 172.585938 393.914062 L 422.113281 393.914062 C 422.671875 393.914062 423.226562 393.886719 423.78125 393.832031 C 424.332031 393.777344 424.882812 393.695312 425.429688 393.585938 C 425.972656 393.476562 426.511719 393.34375 427.042969 393.179688 C 427.578125 393.019531 428.101562 392.832031 428.613281 392.617188 C 429.128906 392.40625 429.628906 392.167969 430.121094 391.90625 C 430.609375 391.644531 431.085938 391.359375 431.550781 391.046875 C 432.011719 390.738281 432.457031 390.410156 432.886719 390.054688 C 433.316406 389.703125 433.730469 389.328125 434.121094 388.9375 C 434.515625 388.542969 434.890625 388.132812 435.242188 387.703125 C 435.59375 387.273438 435.925781 386.824219 436.234375 386.363281 C 436.542969 385.902344 436.832031 385.425781 437.09375 384.933594 C 437.355469 384.441406 437.59375 383.941406 437.804688 383.425781 C 438.019531 382.914062 438.207031 382.390625 438.367188 381.859375 C 438.53125 381.324219 438.664062 380.785156 438.773438 380.242188 C 438.882812 379.695312 438.964844 379.148438 439.019531 378.59375 C 439.074219 378.039062 439.101562 377.484375 439.101562 376.929688 L 439.101562 224.046875 L 328.980469 310.933594 C 326.75 312.714844 324.390625 314.300781 321.894531 315.683594 C 319.394531 317.070312 316.800781 318.234375 314.109375 319.179688 C 311.417969 320.128906 308.664062 320.84375 305.851562 321.328125 C 303.039062 321.8125 300.203125 322.058594 297.351562 322.0625 Z M 297.351562 322.0625 " fill-opacity="1" fill-rule="nonzero"/><g clip-path="url(#786b830aa7)"><path fill="#ffffff" d="M 297.351562 7.125 C 292.558594 7.125 287.765625 7.242188 282.980469 7.476562 C 278.191406 7.710938 273.414062 8.066406 268.644531 8.535156 C 263.875 9.003906 259.117188 9.589844 254.375 10.292969 C 249.636719 11 244.914062 11.816406 240.214844 12.753906 C 235.511719 13.6875 230.835938 14.738281 226.1875 15.902344 C 221.539062 17.066406 216.917969 18.34375 212.332031 19.734375 C 207.746094 21.128906 203.195312 22.628906 198.683594 24.246094 C 194.171875 25.859375 189.699219 27.585938 185.273438 29.417969 C 180.84375 31.253906 176.464844 33.195312 172.128906 35.242188 C 167.796875 37.292969 163.515625 39.449219 159.289062 41.707031 C 155.0625 43.964844 150.894531 46.328125 146.78125 48.792969 C 142.671875 51.257812 138.621094 53.820312 134.636719 56.484375 C 130.652344 59.144531 126.734375 61.90625 122.882812 64.761719 C 119.035156 67.617188 115.257812 70.5625 111.550781 73.605469 C 107.847656 76.644531 104.21875 79.773438 100.667969 82.992188 C 97.117188 86.210938 93.644531 89.515625 90.257812 92.90625 C 86.867188 96.296875 83.5625 99.765625 80.34375 103.316406 C 77.125 106.867188 73.996094 110.496094 70.953125 114.203125 C 67.914062 117.90625 64.964844 121.683594 62.109375 125.535156 C 59.253906 129.382812 56.496094 133.300781 53.832031 137.289062 C 51.171875 141.273438 48.605469 145.320312 46.144531 149.433594 C 43.679688 153.542969 41.316406 157.710938 39.058594 161.941406 C 36.796875 166.167969 34.644531 170.445312 32.59375 174.78125 C 30.546875 179.113281 28.601562 183.492188 26.769531 187.921875 C 24.933594 192.351562 23.210938 196.820312 21.59375 201.332031 C 19.980469 205.847656 18.476562 210.394531 17.085938 214.984375 C 15.695312 219.570312 14.417969 224.1875 13.253906 228.835938 C 12.085938 233.488281 11.039062 238.160156 10.101562 242.863281 C 9.167969 247.5625 8.347656 252.285156 7.644531 257.027344 C 6.941406 261.765625 6.355469 266.523438 5.886719 271.292969 C 5.414062 276.0625 5.0625 280.84375 4.828125 285.628906 C 4.59375 290.417969 4.476562 295.207031 4.476562 300 C 4.476562 304.792969 4.59375 309.582031 4.828125 314.371094 C 5.0625 319.15625 5.414062 323.9375 5.886719 328.707031 C 6.355469 333.476562 6.941406 338.234375 7.644531 342.972656 C 8.347656 347.714844 9.167969 352.4375 10.101562 357.136719 C 11.039062 361.839844 12.085938 366.511719 13.253906 371.164062 C 14.417969 375.8125 15.695312 380.429688 17.085938 385.015625 C 18.476562 389.605469 19.980469 394.152344 21.59375 398.667969 C 23.210938 403.179688 24.933594 407.648438 26.769531 412.078125 C 28.601562 416.507812 30.546875 420.886719 32.59375 425.21875 C 34.644531 429.554688 36.796875 433.832031 39.058594 438.058594 C 41.316406 442.289062 43.679688 446.457031 46.144531 450.566406 C 48.605469 454.679688 51.171875 458.726562 53.832031 462.710938 C 56.496094 466.699219 59.253906 470.617188 62.109375 474.464844 C 64.964844 478.316406 67.914062 482.09375 70.953125 485.796875 C 73.996094 489.503906 77.125 493.132812 80.34375 496.683594 C 83.5625 500.234375 86.867188 503.703125 90.257812 507.09375 C 93.644531 510.484375 97.117188 513.789062 100.667969 517.007812 C 104.21875 520.226562 107.847656 523.355469 111.550781 526.394531 C 115.257812 529.4375 119.035156 532.382812 122.882812 535.238281 C 126.734375 538.09375 130.652344 540.855469 134.636719 543.515625 C 138.621094 546.179688 142.671875 548.742188 146.78125 551.207031 C 150.894531 553.671875 155.0625 556.035156 159.289062 558.292969 C 163.515625 560.550781 167.796875 562.707031 172.128906 564.757812 C 176.464844 566.804688 180.84375 568.746094 185.273438 570.582031 C 189.699219 572.414062 194.171875 574.140625 198.683594 575.753906 C 203.195312 577.371094 207.746094 578.871094 212.332031 580.265625 C 216.917969 581.65625 221.539062 582.933594 226.1875 584.097656 C 230.835938 585.261719 235.511719 586.3125 240.214844 587.246094 C 244.914062 588.183594 249.636719 589 254.375 589.707031 C 259.117188 590.410156 263.875 590.996094 268.644531 591.464844 C 273.414062 591.933594 278.191406 592.289062 282.980469 592.523438 C 287.765625 592.757812 292.558594 592.875 297.351562 592.875 C 302.144531 592.875 306.933594 592.757812 311.722656 592.523438 C 316.507812 592.289062 321.285156 591.933594 326.058594 591.464844 C 330.828125 590.996094 335.582031 590.410156 340.324219 589.707031 C 345.066406 589 349.785156 588.183594 354.488281 587.246094 C 359.1875 586.3125 363.863281 585.261719 368.511719 584.097656 C 373.164062 582.933594 377.78125 581.65625 382.367188 580.265625 C 386.953125 578.871094 391.503906 577.371094 396.015625 575.753906 C 400.53125 574.140625 405 572.414062 409.429688 570.582031 C 413.855469 568.746094 418.238281 566.804688 422.570312 564.757812 C 426.902344 562.707031 431.183594 560.550781 435.410156 558.292969 C 439.636719 556.035156 443.808594 553.671875 447.917969 551.207031 C 452.03125 548.742188 456.078125 546.179688 460.0625 543.515625 C 464.046875 540.855469 467.964844 538.09375 471.816406 535.238281 C 475.664062 532.382812 479.441406 529.4375 483.148438 526.394531 C 486.851562 523.355469 490.480469 520.226562 494.03125 517.007812 C 497.585938 513.789062 501.054688 510.484375 504.445312 507.09375 C 507.832031 503.703125 511.136719 500.234375 514.355469 496.683594 C 517.574219 493.132812 520.707031 489.503906 523.746094 485.796875 C 526.785156 482.09375 529.734375 478.316406 532.589844 474.464844 C 535.445312 470.617188 538.203125 466.699219 540.867188 462.710938 C 543.53125 458.726562 546.09375 454.679688 548.558594 450.566406 C 551.023438 446.457031 553.382812 442.289062 555.644531 438.058594 C 557.902344 433.832031 560.058594 429.554688 562.105469 425.21875 C 564.15625 420.886719 566.097656 416.507812 567.929688 412.078125 C 569.765625 407.648438 571.492188 403.179688 573.105469 398.667969 C 574.71875 394.152344 576.222656 389.605469 577.613281 385.015625 C 579.003906 380.429688 580.285156 375.8125 581.449219 371.164062 C 582.613281 366.511719 583.664062 361.839844 584.597656 357.136719 C 585.53125 352.4375 586.351562 347.714844 587.054688 342.972656 C 587.757812 338.234375 588.34375 333.476562 588.816406 328.707031 C 589.285156 323.9375 589.636719 319.15625 589.871094 314.371094 C 590.109375 309.582031 590.226562 304.792969 590.226562 300 C 590.222656 295.207031 590.105469 290.417969 589.867188 285.632812 C 589.632812 280.84375 589.277344 276.066406 588.804688 271.296875 C 588.335938 266.527344 587.746094 261.773438 587.042969 257.03125 C 586.335938 252.289062 585.515625 247.570312 584.582031 242.871094 C 583.644531 238.171875 582.59375 233.496094 581.425781 228.847656 C 580.261719 224.199219 578.984375 219.582031 577.589844 214.996094 C 576.199219 210.410156 574.695312 205.859375 573.078125 201.347656 C 571.464844 196.835938 569.738281 192.367188 567.902344 187.9375 C 566.070312 183.511719 564.125 179.128906 562.078125 174.796875 C 560.027344 170.464844 557.871094 166.1875 555.613281 161.960938 C 553.351562 157.734375 550.988281 153.566406 548.527344 149.457031 C 546.0625 145.34375 543.496094 141.296875 540.835938 137.3125 C 538.171875 133.328125 535.414062 129.410156 532.558594 125.5625 C 529.703125 121.710938 526.753906 117.933594 523.714844 114.230469 C 520.671875 110.527344 517.542969 106.898438 514.324219 103.347656 C 511.105469 99.796875 507.800781 96.324219 504.414062 92.9375 C 501.023438 89.546875 497.554688 86.246094 494.003906 83.027344 C 490.453125 79.808594 486.824219 76.675781 483.121094 73.636719 C 479.414062 70.597656 475.636719 67.648438 471.789062 64.792969 C 467.941406 61.9375 464.023438 59.179688 460.039062 56.515625 C 456.054688 53.851562 452.003906 51.289062 447.894531 48.824219 C 443.785156 46.359375 439.617188 44 435.390625 41.738281 C 431.164062 39.480469 426.882812 37.324219 422.550781 35.273438 C 418.21875 33.222656 413.839844 31.28125 409.414062 29.445312 C 404.984375 27.613281 400.515625 25.886719 396.003906 24.269531 C 391.492188 22.65625 386.941406 21.152344 382.355469 19.757812 C 377.769531 18.367188 373.152344 17.089844 368.503906 15.921875 C 363.855469 14.757812 359.179688 13.707031 354.480469 12.769531 C 349.78125 11.832031 345.058594 11.011719 340.320312 10.308594 C 335.578125 9.605469 330.824219 9.015625 326.054688 8.542969 C 321.285156 8.074219 316.507812 7.71875 311.71875 7.484375 C 306.933594 7.246094 302.144531 7.125 297.351562 7.125 Z M 473.074219 376.929688 C 473.074219 378.601562 472.992188 380.265625 472.828125 381.929688 C 472.664062 383.59375 472.421875 385.246094 472.097656 386.882812 C 471.769531 388.523438 471.367188 390.144531 470.882812 391.742188 C 470.398438 393.34375 469.835938 394.914062 469.199219 396.457031 C 468.558594 398.003906 467.847656 399.511719 467.0625 400.988281 C 466.273438 402.460938 465.417969 403.894531 464.492188 405.285156 C 463.566406 406.675781 462.574219 408.019531 461.515625 409.3125 C 460.457031 410.605469 459.339844 411.847656 458.160156 413.03125 C 456.980469 414.214844 455.746094 415.335938 454.457031 416.402344 C 453.164062 417.464844 451.828125 418.460938 450.441406 419.394531 C 449.050781 420.324219 447.621094 421.1875 446.152344 421.976562 C 444.679688 422.769531 443.171875 423.488281 441.628906 424.132812 C 440.089844 424.777344 438.519531 425.34375 436.921875 425.832031 C 435.324219 426.324219 433.703125 426.734375 432.066406 427.066406 C 430.429688 427.398438 428.777344 427.648438 427.117188 427.820312 C 425.453125 427.988281 423.785156 428.078125 422.113281 428.085938 L 172.585938 428.085938 C 170.914062 428.078125 169.246094 427.988281 167.585938 427.820312 C 165.921875 427.648438 164.273438 427.398438 162.632812 427.066406 C 160.996094 426.734375 159.378906 426.324219 157.78125 425.832031 C 156.183594 425.34375 154.613281 424.777344 153.070312 424.132812 C 151.527344 423.488281 150.019531 422.769531 148.550781 421.976562 C 147.078125 421.1875 145.648438 420.324219 144.261719 419.394531 C 142.875 418.460938 141.535156 417.464844 140.246094 416.398438 C 138.957031 415.335938 137.722656 414.214844 136.542969 413.03125 C 135.363281 411.847656 134.242188 410.605469 133.183594 409.3125 C 132.128906 408.019531 131.132812 406.675781 130.207031 405.285156 C 129.28125 403.894531 128.425781 402.460938 127.640625 400.988281 C 126.851562 399.511719 126.140625 398.003906 125.503906 396.457031 C 124.863281 394.914062 124.304688 393.34375 123.820312 391.742188 C 123.335938 390.144531 122.929688 388.523438 122.605469 386.882812 C 122.277344 385.246094 122.035156 383.59375 121.871094 381.929688 C 121.707031 380.265625 121.625 378.601562 121.625 376.929688 L 121.625 223.070312 C 121.625 221.398438 121.707031 219.734375 121.871094 218.070312 C 122.035156 216.40625 122.277344 214.753906 122.605469 213.117188 C 122.929688 211.476562 123.335938 209.855469 123.820312 208.257812 C 124.304688 206.65625 124.863281 205.085938 125.503906 203.542969 C 126.140625 201.996094 126.851562 200.488281 127.640625 199.011719 C 128.425781 197.539062 129.28125 196.105469 130.207031 194.714844 C 131.136719 193.324219 132.128906 191.980469 133.183594 190.6875 C 134.242188 189.394531 135.363281 188.152344 136.542969 186.96875 C 137.722656 185.785156 138.957031 184.664062 140.246094 183.601562 C 141.535156 182.535156 142.875 181.539062 144.261719 180.605469 C 145.648438 179.675781 147.078125 178.8125 148.550781 178.023438 C 150.019531 177.230469 151.527344 176.511719 153.070312 175.867188 C 154.613281 175.222656 156.183594 174.65625 157.78125 174.167969 C 159.378906 173.675781 160.996094 173.265625 162.632812 172.933594 C 164.273438 172.601562 165.921875 172.351562 167.585938 172.179688 C 169.246094 172.011719 170.914062 171.921875 172.585938 171.914062 L 422.113281 171.914062 C 423.785156 171.921875 425.453125 172.011719 427.117188 172.179688 C 428.777344 172.351562 430.429688 172.601562 432.066406 172.933594 C 433.703125 173.265625 435.324219 173.675781 436.921875 174.167969 C 438.519531 174.65625 440.089844 175.222656 441.628906 175.867188 C 443.171875 176.511719 444.679688 177.230469 446.152344 178.023438 C 447.625 178.8125 449.050781 179.675781 450.441406 180.605469 C 451.828125 181.539062 453.164062 182.535156 454.457031 183.601562 C 455.746094 184.664062 456.980469 185.785156 458.160156 186.96875 C 459.339844 188.152344 460.457031 189.394531 461.515625 190.6875 C 462.574219 191.980469 463.566406 193.324219 464.492188 194.714844 C 465.417969 196.105469 466.273438 197.539062 467.0625 199.011719 C 467.847656 200.488281 468.558594 201.996094 469.199219 203.542969 C 469.835938 205.085938 470.398438 206.65625 470.882812 208.257812 C 471.367188 209.855469 471.769531 211.476562 472.097656 213.117188 C 472.421875 214.753906 472.664062 216.40625 472.828125 218.070312 C 472.992188 219.734375 473.074219 221.398438 473.074219 223.070312 Z M 473.074219 376.929688 " fill-opacity="1" fill-rule="nonzero"/></g></svg>